M48
METRIC,LZ,000.000
;FILE_FORMAT=3:3
;TYPE=PLATED
;Layer: PTH_Through
;EasyEDA v6.5.50, 2025-07-18 22:31:46
;04dc3b07505f4677bf90bee5ef889ce6,38ef4e46ccee4584b929a847fdfc0218,10
;Gerber Generator version 0.2
;Holesize 1 = 0.306 mm
T01C0.306
;Holesize 2 = 0.889 mm
T02C0.889
;Holesize 3 = 0.915 mm
T03C0.915
;Holesize 4 = 1.000 mm
T04C1.000
%
G05
G90
T01
X075398Y033869
X054375Y033869
X062015Y037792
X023178Y017049
X065483Y031561
X055800Y030357
T02
X043434Y013589
X045974Y013589
X048514Y013589
X051054Y013589
X053594Y013589
X056134Y013589
X058674Y013589
X061214Y013589
X063754Y013589
X066294Y013589
X066548Y039243
X064008Y039243
X061468Y039243
X058928Y039243
X056388Y039243
X053848Y039243
X051308Y039243
X048768Y039243
X046228Y039243
X043688Y039243
X008636Y-002159
X008636Y000381
X009652Y046101
X009652Y048641
X009652Y059309
X009652Y056769
X117602Y-003429
X117602Y-000889
X117602Y001651
X117602Y004191
X117602Y047625
X117602Y050165
X117602Y052705
X117602Y055245
X016256Y052197
X016256Y049657
X016256Y047117
X016256Y044577
T03
X008636Y002921
T04
X026035Y038610
X023495Y038610
X020955Y038610
X018415Y038607
X075946Y014097
X078486Y014097
X081026Y014097
X083566Y014097
X086106Y014097
X088646Y014097
X091186Y014097
X093726Y014097
X096266Y014097
X098806Y014097
X101346Y014097
X103886Y014097
X106426Y014097
X108966Y014097
X111506Y014097
X114046Y014097
X116586Y014097
X119126Y014097
X121666Y014097
X075946Y039497
X078486Y039497
X081026Y039497
X083566Y039497
X086106Y039497
X088646Y039497
X091186Y039497
X093726Y039497
X096266Y039497
X098806Y039497
X101346Y039497
X103886Y039497
X106426Y039497
X108966Y039497
X111506Y039497
X114046Y039497
X116586Y039497
X119126Y039497
X121666Y039497
M30
