G04 Layer: BottomLayer*
G04 EasyEDA v6.5.50, 2025-07-18 22:31:46*
G04 04dc3b07505f4677bf90bee5ef889ce6,38ef4e46ccee4584b929a847fdfc0218,10*
G04 Gerber Generator version 0.2*
G04 Scale: 100 percent, Rotated: No, Reflected: No *
G04 Dimensions in millimeters *
G04 leading zeros omitted , absolute positions ,4 integer and 5 decimal *
%FSLAX45Y45*%
%MOMM*%

%ADD10C,1.0000*%
%ADD11C,1.5748*%
%ADD12R,1.5748X1.5748*%
%ADD13C,1.6500*%
%ADD14C,1.5000*%
%ADD15C,0.6100*%
%ADD16C,0.0114*%

%LPD*%
D10*
X12166602Y1409700D02*
G01*
X12166602Y825500D01*
X11760202Y419100D01*
X1446786Y5219700D02*
G01*
X989586Y5676900D01*
X965202Y5676900D01*
X1536194Y5219700D02*
G01*
X1446786Y5219700D01*
X1536194Y5219700D02*
G01*
X965202Y4648707D01*
X965202Y4610100D01*
X1580898Y5219700D02*
G01*
X1536194Y5219700D01*
X1580898Y5219700D02*
G01*
X1625602Y5219700D01*
X1625602Y5219700D02*
G01*
X2894586Y5219700D01*
X4189986Y3924300D01*
X4368802Y3924300D02*
G01*
X4189986Y3924300D01*
X5892802Y3924300D02*
G01*
X5892802Y3348532D01*
X5580001Y3035731D01*
X11760202Y4762500D02*
G01*
X11922279Y4924577D01*
X11922279Y5574487D01*
X11822356Y5674410D01*
X7896913Y5674410D01*
X6146802Y3924300D01*
X11760202Y-342900D02*
G01*
X9142783Y-342900D01*
X6400802Y2399080D01*
X6400802Y3924300D01*
X6654802Y3924300D02*
G01*
X6654802Y3262579D01*
X6548274Y3156051D01*
X2349502Y3860927D02*
G01*
X2349502Y1736623D01*
X2317752Y1704873D01*
X2317752Y1704873D02*
G01*
X2317752Y1238250D01*
X863602Y-215900D01*
X11760202Y5270500D02*
G01*
X8915402Y5270500D01*
X7594602Y3949700D01*
X965202Y5930900D02*
G01*
X2616202Y5930900D01*
X4622802Y3924300D01*
X6375402Y1358900D02*
G01*
X6201488Y1532813D01*
X6201488Y3779189D01*
X2095502Y3860927D02*
G01*
X2095502Y4241800D01*
X1625602Y4711700D01*
X8102602Y3949700D02*
G01*
X7539763Y3386861D01*
X6121402Y1358900D02*
G01*
X5437532Y2042769D01*
X5437532Y3386861D01*
X5130802Y3924300D02*
G01*
X5130802Y2095500D01*
X5867402Y1358900D01*
D11*
G01*
X4343400Y1358900D03*
G01*
X4597400Y1358900D03*
G01*
X4851400Y1358900D03*
G01*
X5105400Y1358900D03*
G01*
X5359400Y1358900D03*
G01*
X5613400Y1358900D03*
G01*
X5867400Y1358900D03*
G01*
X6121400Y1358900D03*
G01*
X6375400Y1358900D03*
D12*
G01*
X6629400Y1358900D03*
D11*
G01*
X6654800Y3924300D03*
G01*
X6400800Y3924300D03*
G01*
X6146800Y3924300D03*
G01*
X5892800Y3924300D03*
G01*
X5638800Y3924300D03*
G01*
X5384800Y3924300D03*
G01*
X5130800Y3924300D03*
G01*
X4876800Y3924300D03*
G01*
X4622800Y3924300D03*
D12*
G01*
X4368800Y3924300D03*
G01*
X863600Y-215900D03*
D11*
G01*
X863600Y38100D03*
G01*
X863600Y292100D03*
D12*
G01*
X965200Y4610100D03*
D11*
G01*
X965200Y4864100D03*
D12*
G01*
X965200Y5930900D03*
D11*
G01*
X965200Y5676900D03*
D12*
G01*
X11760200Y-342900D03*
D11*
G01*
X11760200Y-88900D03*
G01*
X11760200Y165100D03*
G01*
X11760200Y419100D03*
D12*
G01*
X11760200Y4762500D03*
D11*
G01*
X11760200Y5016500D03*
G01*
X11760200Y5270500D03*
G01*
X11760200Y5524500D03*
D12*
G01*
X1625600Y5219700D03*
D11*
G01*
X1625600Y4965700D03*
G01*
X1625600Y4711700D03*
G01*
X1625600Y4457700D03*
D13*
G01*
X2603500Y3860927D03*
G01*
X2349500Y3860927D03*
G01*
X2095500Y3860927D03*
G01*
X1841500Y3860672D03*
D14*
G01*
X7594605Y1409702D03*
G01*
X7848605Y1409702D03*
G01*
X8102605Y1409702D03*
G01*
X8356605Y1409702D03*
G01*
X8610605Y1409702D03*
G01*
X8864605Y1409702D03*
G01*
X9118605Y1409702D03*
G01*
X9372605Y1409702D03*
G01*
X9626605Y1409702D03*
G01*
X9880605Y1409702D03*
G01*
X10134605Y1409702D03*
G01*
X10388605Y1409702D03*
G01*
X10642605Y1409702D03*
G01*
X10896605Y1409702D03*
G01*
X11150605Y1409702D03*
G01*
X11404605Y1409702D03*
G01*
X11658605Y1409702D03*
G01*
X11912605Y1409702D03*
G01*
X12166605Y1409702D03*
G01*
X7594605Y3949702D03*
G01*
X7848605Y3949702D03*
G01*
X8102605Y3949702D03*
G01*
X8356605Y3949702D03*
G01*
X8610605Y3949702D03*
G01*
X8864605Y3949702D03*
G01*
X9118605Y3949702D03*
G01*
X9372605Y3949702D03*
G01*
X9626605Y3949702D03*
G01*
X9880605Y3949702D03*
G01*
X10134605Y3949702D03*
G01*
X10388605Y3949702D03*
G01*
X10642605Y3949702D03*
G01*
X10896605Y3949702D03*
G01*
X11150605Y3949702D03*
G01*
X11404605Y3949702D03*
G01*
X11658605Y3949702D03*
G01*
X11912605Y3949702D03*
G01*
X12166605Y3949702D03*
D15*
G01*
X7539763Y3386861D03*
G01*
X5437532Y3386861D03*
G01*
X6201488Y3779189D03*
G01*
X2317752Y1704873D03*
G01*
X6548274Y3156051D03*
G01*
X5580001Y3035731D03*
M02*
