G04 Layer: BottomSolderMaskLayer*
G04 EasyEDA v6.5.50, 2025-07-18 22:31:46*
G04 04dc3b07505f4677bf90bee5ef889ce6,38ef4e46ccee4584b929a847fdfc0218,10*
G04 Gerber Generator version 0.2*
G04 Scale: 100 percent, Rotated: No, Reflected: No *
G04 Dimensions in millimeters *
G04 leading zeros omitted , absolute positions ,4 integer and 5 decimal *
%FSLAX45Y45*%
%MOMM*%

%AMMACRO1*4,1,8,-0.8085,-0.8382,-0.8382,-0.8082,-0.8382,0.8085,-0.8085,0.8382,0.8082,0.8382,0.8382,0.8085,0.8382,-0.8082,0.8082,-0.8382,-0.8085,-0.8382,0*%
%ADD10C,1.6764*%
%ADD11MACRO1*%
%ADD12C,1.7516*%
%ADD13C,1.6000*%
%ADD14C,0.0146*%

%LPD*%
D10*
G01*
X4343400Y1358900D03*
G01*
X4597400Y1358900D03*
G01*
X4851400Y1358900D03*
G01*
X5105400Y1358900D03*
G01*
X5359400Y1358900D03*
G01*
X5613400Y1358900D03*
G01*
X5867400Y1358900D03*
G01*
X6121400Y1358900D03*
G01*
X6375400Y1358900D03*
D11*
G01*
X6629400Y1358900D03*
D10*
G01*
X6654800Y3924300D03*
G01*
X6400800Y3924300D03*
G01*
X6146800Y3924300D03*
G01*
X5892800Y3924300D03*
G01*
X5638800Y3924300D03*
G01*
X5384800Y3924300D03*
G01*
X5130800Y3924300D03*
G01*
X4876800Y3924300D03*
G01*
X4622800Y3924300D03*
D11*
G01*
X4368800Y3924300D03*
G01*
X863600Y-215900D03*
D10*
G01*
X863600Y38100D03*
G01*
X863600Y292100D03*
D11*
G01*
X965200Y4610100D03*
D10*
G01*
X965200Y4864100D03*
D11*
G01*
X965200Y5930900D03*
D10*
G01*
X965200Y5676900D03*
D11*
G01*
X11760200Y-342900D03*
D10*
G01*
X11760200Y-88900D03*
G01*
X11760200Y165100D03*
G01*
X11760200Y419100D03*
D11*
G01*
X11760200Y4762500D03*
D10*
G01*
X11760200Y5016500D03*
G01*
X11760200Y5270500D03*
G01*
X11760200Y5524500D03*
D11*
G01*
X1625600Y5219700D03*
D10*
G01*
X1625600Y4965700D03*
G01*
X1625600Y4711700D03*
G01*
X1625600Y4457700D03*
D12*
G01*
X2603500Y3860927D03*
G01*
X2349500Y3860927D03*
G01*
X2095500Y3860927D03*
G01*
X1841500Y3860672D03*
D13*
G01*
X7594605Y1409702D03*
G01*
X7848605Y1409702D03*
G01*
X8102605Y1409702D03*
G01*
X8356605Y1409702D03*
G01*
X8610605Y1409702D03*
G01*
X8864605Y1409702D03*
G01*
X9118605Y1409702D03*
G01*
X9372605Y1409702D03*
G01*
X9626605Y1409702D03*
G01*
X9880605Y1409702D03*
G01*
X10134605Y1409702D03*
G01*
X10388605Y1409702D03*
G01*
X10642605Y1409702D03*
G01*
X10896605Y1409702D03*
G01*
X11150605Y1409702D03*
G01*
X11404605Y1409702D03*
G01*
X11658605Y1409702D03*
G01*
X11912605Y1409702D03*
G01*
X12166605Y1409702D03*
G01*
X7594605Y3949702D03*
G01*
X7848605Y3949702D03*
G01*
X8102605Y3949702D03*
G01*
X8356605Y3949702D03*
G01*
X8610605Y3949702D03*
G01*
X8864605Y3949702D03*
G01*
X9118605Y3949702D03*
G01*
X9372605Y3949702D03*
G01*
X9626605Y3949702D03*
G01*
X9880605Y3949702D03*
G01*
X10134605Y3949702D03*
G01*
X10388605Y3949702D03*
G01*
X10642605Y3949702D03*
G01*
X10896605Y3949702D03*
G01*
X11150605Y3949702D03*
G01*
X11404605Y3949702D03*
G01*
X11658605Y3949702D03*
G01*
X11912605Y3949702D03*
G01*
X12166605Y3949702D03*
M02*
