G04 Layer: TopSilkscreenLayer*
G04 EasyEDA v6.5.50, 2025-07-18 22:31:46*
G04 04dc3b07505f4677bf90bee5ef889ce6,38ef4e46ccee4584b929a847fdfc0218,10*
G04 Gerber Generator version 0.2*
G04 Scale: 100 percent, Rotated: No, Reflected: No *
G04 Dimensions in millimeters *
G04 leading zeros omitted , absolute positions ,4 integer and 5 decimal *
%FSLAX45Y45*%
%MOMM*%

%ADD10C,0.1524*%
%ADD11C,0.2500*%
%ADD12C,0.2032*%
%ADD13C,0.2030*%
%ADD14C,0.2540*%
%ADD15C,0.0195*%

%LPD*%
D10*
X5511800Y1091184D02*
G01*
X5511800Y1200150D01*
X5439156Y1091184D02*
G01*
X5439156Y1200150D01*
X5511800Y1143000D02*
G01*
X5439156Y1143000D01*
X5404865Y1112012D02*
G01*
X5394452Y1106678D01*
X5378704Y1091184D01*
X5378704Y1200150D01*
X5486400Y4192015D02*
G01*
X5486400Y4083050D01*
X5559043Y4192015D02*
G01*
X5559043Y4083050D01*
X5486400Y4140200D02*
G01*
X5559043Y4140200D01*
X5598668Y4166107D02*
G01*
X5598668Y4171187D01*
X5603747Y4181602D01*
X5609081Y4186936D01*
X5619495Y4192015D01*
X5640070Y4192015D01*
X5650484Y4186936D01*
X5655818Y4181602D01*
X5660897Y4171187D01*
X5660897Y4160773D01*
X5655818Y4150360D01*
X5645404Y4134865D01*
X5593334Y4083050D01*
X5666231Y4083050D01*
X595884Y12700D02*
G01*
X704850Y12700D01*
X595884Y85344D02*
G01*
X704850Y85344D01*
X647700Y12700D02*
G01*
X647700Y85344D01*
X595884Y130047D02*
G01*
X595884Y187197D01*
X637539Y156210D01*
X637539Y171704D01*
X642620Y182118D01*
X647700Y187197D01*
X663447Y192531D01*
X673862Y192531D01*
X689355Y187197D01*
X699770Y176784D01*
X704850Y161289D01*
X704850Y145795D01*
X699770Y130047D01*
X694689Y124968D01*
X684276Y119634D01*
X697484Y4711700D02*
G01*
X806450Y4711700D01*
X697484Y4784344D02*
G01*
X806450Y4784344D01*
X749300Y4711700D02*
G01*
X749300Y4784344D01*
X697484Y4870704D02*
G01*
X770128Y4818634D01*
X770128Y4896612D01*
X697484Y4870704D02*
G01*
X806450Y4870704D01*
X1232915Y5829300D02*
G01*
X1123950Y5829300D01*
X1232915Y5756655D02*
G01*
X1123950Y5756655D01*
X1181100Y5829300D02*
G01*
X1181100Y5756655D01*
X1232915Y5649468D02*
G01*
X1123950Y5701537D01*
X1232915Y5722365D02*
G01*
X1232915Y5649468D01*
X11492484Y12700D02*
G01*
X11601450Y12700D01*
X11492484Y85344D02*
G01*
X11601450Y85344D01*
X11544300Y12700D02*
G01*
X11544300Y85344D01*
X11492484Y182118D02*
G01*
X11492484Y130047D01*
X11539220Y124968D01*
X11534140Y130047D01*
X11528806Y145795D01*
X11528806Y161289D01*
X11534140Y176784D01*
X11544300Y187197D01*
X11560047Y192531D01*
X11570461Y192531D01*
X11585956Y187197D01*
X11596370Y176784D01*
X11601450Y161289D01*
X11601450Y145795D01*
X11596370Y130047D01*
X11591290Y124968D01*
X11580875Y119634D01*
X11492484Y5118100D02*
G01*
X11601450Y5118100D01*
X11492484Y5190744D02*
G01*
X11601450Y5190744D01*
X11544300Y5118100D02*
G01*
X11544300Y5190744D01*
X11507977Y5287518D02*
G01*
X11497563Y5282184D01*
X11492484Y5266689D01*
X11492484Y5256276D01*
X11497563Y5240781D01*
X11513311Y5230368D01*
X11539220Y5225034D01*
X11565127Y5225034D01*
X11585956Y5230368D01*
X11596370Y5240781D01*
X11601450Y5256276D01*
X11601450Y5261610D01*
X11596370Y5277104D01*
X11585956Y5287518D01*
X11570461Y5292597D01*
X11565127Y5292597D01*
X11549634Y5287518D01*
X11539220Y5277104D01*
X11534140Y5261610D01*
X11534140Y5256276D01*
X11539220Y5240781D01*
X11549634Y5230368D01*
X11565127Y5225034D01*
X1893315Y4864100D02*
G01*
X1784350Y4864100D01*
X1893315Y4791455D02*
G01*
X1784350Y4791455D01*
X1841500Y4864100D02*
G01*
X1841500Y4791455D01*
X1893315Y4731004D02*
G01*
X1888236Y4746752D01*
X1877821Y4751831D01*
X1867407Y4751831D01*
X1856994Y4746752D01*
X1851660Y4736337D01*
X1846579Y4715510D01*
X1841500Y4700015D01*
X1831086Y4689602D01*
X1820671Y4684268D01*
X1804923Y4684268D01*
X1794510Y4689602D01*
X1789429Y4694681D01*
X1784350Y4710429D01*
X1784350Y4731004D01*
X1789429Y4746752D01*
X1794510Y4751831D01*
X1804923Y4757165D01*
X1820671Y4757165D01*
X1831086Y4751831D01*
X1841500Y4741418D01*
X1846579Y4725923D01*
X1851660Y4705095D01*
X1856994Y4694681D01*
X1867407Y4689602D01*
X1877821Y4689602D01*
X1888236Y4694681D01*
X1893315Y4710429D01*
X1893315Y4731004D01*
X2246528Y4170273D02*
G01*
X2236114Y4165193D01*
X2225700Y4154779D01*
X2220366Y4144365D01*
X2215286Y4128617D01*
X2215286Y4102709D01*
X2220366Y4087215D01*
X2225700Y4076801D01*
X2236114Y4066387D01*
X2246528Y4061307D01*
X2267356Y4061307D01*
X2277516Y4066387D01*
X2287930Y4076801D01*
X2293264Y4087215D01*
X2298344Y4102709D01*
X2298344Y4128617D01*
X2293264Y4144365D01*
X2287930Y4154779D01*
X2277516Y4165193D01*
X2267356Y4170273D01*
X2246528Y4170273D01*
X2332634Y4170273D02*
G01*
X2332634Y4061307D01*
X2332634Y4061307D02*
G01*
X2395118Y4061307D01*
X2429408Y4170273D02*
G01*
X2429408Y4061307D01*
X2429408Y4170273D02*
G01*
X2496972Y4170273D01*
X2429408Y4118457D02*
G01*
X2470810Y4118457D01*
X2429408Y4061307D02*
G01*
X2496972Y4061307D01*
X2531262Y4170273D02*
G01*
X2531262Y4061307D01*
X2531262Y4170273D02*
G01*
X2567584Y4170273D01*
X2583078Y4165193D01*
X2593492Y4154779D01*
X2598826Y4144365D01*
X2603906Y4128617D01*
X2603906Y4102709D01*
X2598826Y4087215D01*
X2593492Y4076801D01*
X2583078Y4066387D01*
X2567584Y4061307D01*
X2531262Y4061307D01*
X2638196Y4149445D02*
G01*
X2648610Y4154779D01*
X2664104Y4170273D01*
X2664104Y4061307D01*
D11*
X1646938Y2901581D02*
G01*
X1646938Y2787030D01*
X1683006Y2901581D02*
G01*
X1683006Y2787030D01*
X1800860Y2874152D02*
G01*
X1795269Y2885066D01*
X1784352Y2895991D01*
X1773428Y2901581D01*
X1751581Y2901581D01*
X1740664Y2895991D01*
X1729742Y2885066D01*
X1724405Y2874152D01*
X1718815Y2857891D01*
X1718815Y2830720D01*
X1724405Y2814200D01*
X1729742Y2803281D01*
X1740664Y2792361D01*
X1751581Y2787030D01*
X1773428Y2787030D01*
X1784352Y2792361D01*
X1795269Y2803281D01*
X1800860Y2814200D01*
X1836676Y2836052D02*
G01*
X1934969Y2836052D01*
X2052827Y2874152D02*
G01*
X2047242Y2885066D01*
X2036315Y2895991D01*
X2025398Y2901581D01*
X2003554Y2901581D01*
X1992624Y2895991D01*
X1981710Y2885066D01*
X1976376Y2874152D01*
X1970788Y2857891D01*
X1970788Y2830720D01*
X1976376Y2814200D01*
X1981710Y2803281D01*
X1992624Y2792361D01*
X2003554Y2787030D01*
X2025398Y2787030D01*
X2036315Y2792361D01*
X2047242Y2803281D01*
X2052827Y2814200D01*
X2116076Y2863230D02*
G01*
X2105154Y2857891D01*
X2094224Y2846966D01*
X2088641Y2830720D01*
X2088641Y2819791D01*
X2094224Y2803281D01*
X2105154Y2792361D01*
X2116076Y2787030D01*
X2132324Y2787030D01*
X2143254Y2792361D01*
X2154176Y2803281D01*
X2159510Y2819791D01*
X2159510Y2830720D01*
X2154176Y2846966D01*
X2143254Y2857891D01*
X2132324Y2863230D01*
X2116076Y2863230D01*
X2195573Y2863230D02*
G01*
X2195573Y2787030D01*
X2195573Y2841381D02*
G01*
X2212088Y2857891D01*
X2223010Y2863230D01*
X2239263Y2863230D01*
X2250188Y2857891D01*
X2255520Y2841381D01*
X2255520Y2787030D01*
X2291582Y2863230D02*
G01*
X2291582Y2787030D01*
X2291582Y2841381D02*
G01*
X2307846Y2857891D01*
X2318768Y2863230D01*
X2335273Y2863230D01*
X2346200Y2857891D01*
X2351534Y2841381D01*
X2351534Y2787030D01*
X2387602Y2830720D02*
G01*
X2453134Y2830720D01*
X2453134Y2841381D01*
X2447546Y2852300D01*
X2442209Y2857891D01*
X2431282Y2863230D01*
X2414777Y2863230D01*
X2403856Y2857891D01*
X2392931Y2846966D01*
X2387602Y2830720D01*
X2387602Y2819791D01*
X2392931Y2803281D01*
X2403856Y2792361D01*
X2414777Y2787030D01*
X2431282Y2787030D01*
X2442209Y2792361D01*
X2453134Y2803281D01*
X2554477Y2846966D02*
G01*
X2543556Y2857891D01*
X2532631Y2863230D01*
X2516377Y2863230D01*
X2505456Y2857891D01*
X2494531Y2846966D01*
X2488948Y2830720D01*
X2488948Y2819791D01*
X2494531Y2803281D01*
X2505456Y2792361D01*
X2516377Y2787030D01*
X2532631Y2787030D01*
X2543556Y2792361D01*
X2554477Y2803281D01*
X2606804Y2901581D02*
G01*
X2606804Y2808866D01*
X2612392Y2792361D01*
X2623314Y2787030D01*
X2634231Y2787030D01*
X2590548Y2863230D02*
G01*
X2628648Y2863230D01*
X2697474Y2863230D02*
G01*
X2686560Y2857891D01*
X2675638Y2846966D01*
X2670050Y2830720D01*
X2670050Y2819791D01*
X2675638Y2803281D01*
X2686560Y2792361D01*
X2697474Y2787030D01*
X2713738Y2787030D01*
X2724660Y2792361D01*
X2735574Y2803281D01*
X2740913Y2819791D01*
X2740913Y2830720D01*
X2735574Y2846966D01*
X2724660Y2857891D01*
X2713738Y2863230D01*
X2697474Y2863230D01*
X2776984Y2863230D02*
G01*
X2776984Y2787030D01*
X2776984Y2830720D02*
G01*
X2782570Y2846966D01*
X2793491Y2857891D01*
X2804413Y2863230D01*
X2820670Y2863230D01*
X1855218Y3126115D02*
G01*
X1838960Y3120781D01*
X1828032Y3104530D01*
X1822452Y3077090D01*
X1822452Y3060839D01*
X1828032Y3033410D01*
X1838960Y3017149D01*
X1855218Y3011815D01*
X1866132Y3011815D01*
X1882650Y3017149D01*
X1893570Y3033410D01*
X1898906Y3060839D01*
X1898906Y3077090D01*
X1893570Y3104530D01*
X1882650Y3120781D01*
X1866132Y3126115D01*
X1855218Y3126115D01*
X1940306Y3038990D02*
G01*
X1934969Y3033410D01*
X1940306Y3028073D01*
X1945896Y3033410D01*
X1940306Y3038990D01*
X2052827Y3088015D02*
G01*
X2047242Y3071761D01*
X2036315Y3060839D01*
X2020064Y3055249D01*
X2014476Y3055249D01*
X1998215Y3060839D01*
X1987298Y3071761D01*
X1981710Y3088015D01*
X1981710Y3093600D01*
X1987298Y3109861D01*
X1998215Y3120781D01*
X2014476Y3126115D01*
X2020064Y3126115D01*
X2036315Y3120781D01*
X2047242Y3109861D01*
X2052827Y3088015D01*
X2052827Y3060839D01*
X2047242Y3033410D01*
X2036315Y3017149D01*
X2020064Y3011815D01*
X2009142Y3011815D01*
X1992624Y3017149D01*
X1987298Y3028073D01*
X2154176Y3109861D02*
G01*
X2148842Y3120781D01*
X2132324Y3126115D01*
X2121410Y3126115D01*
X2105154Y3120781D01*
X2094224Y3104530D01*
X2088641Y3077090D01*
X2088641Y3049915D01*
X2094224Y3028073D01*
X2105154Y3017149D01*
X2121410Y3011815D01*
X2126998Y3011815D01*
X2143254Y3017149D01*
X2154176Y3028073D01*
X2159764Y3044324D01*
X2159764Y3049915D01*
X2154176Y3066173D01*
X2143254Y3077090D01*
X2126998Y3082681D01*
X2121410Y3082681D01*
X2105154Y3077090D01*
X2094224Y3066173D01*
X2088641Y3049915D01*
X2206500Y3115452D02*
G01*
X2201163Y3120781D01*
X2206500Y3126115D01*
X2212088Y3120781D01*
X2212088Y3109861D01*
X2206500Y3098939D01*
X2201163Y3093600D01*
X2206500Y3098939D02*
G01*
X2195573Y3088015D01*
X2195573Y3077090D01*
X2201163Y3071761D01*
X2206500Y3077090D01*
X2201163Y3082681D01*
X2195573Y3077090D01*
X2280668Y3126115D02*
G01*
X2269746Y3120781D01*
X2258819Y3109861D01*
X2253482Y3098939D01*
X2247902Y3082681D01*
X2247902Y3055249D01*
X2253482Y3038990D01*
X2258819Y3028073D01*
X2269746Y3017149D01*
X2280668Y3011815D01*
X2302509Y3011815D01*
X2313434Y3017149D01*
X2324356Y3028073D01*
X2329941Y3038990D01*
X2335273Y3055249D01*
X2335273Y3082681D01*
X2329941Y3098939D01*
X2324356Y3109861D01*
X2313434Y3120781D01*
X2302509Y3126115D01*
X2280668Y3126115D01*
X2371346Y3126115D02*
G01*
X2371346Y3011815D01*
X2371346Y3011815D02*
G01*
X2436619Y3011815D01*
X2472692Y3126115D02*
G01*
X2472692Y3011815D01*
X2472692Y3126115D02*
G01*
X2543556Y3126115D01*
X2472692Y3071761D02*
G01*
X2516377Y3071761D01*
X2472692Y3011815D02*
G01*
X2543556Y3011815D01*
X2579626Y3126115D02*
G01*
X2579626Y3011815D01*
X2579626Y3126115D02*
G01*
X2617726Y3126115D01*
X2634231Y3120781D01*
X2645156Y3109861D01*
X2650492Y3098939D01*
X2656077Y3082681D01*
X2656077Y3055249D01*
X2650492Y3038990D01*
X2645156Y3028073D01*
X2634231Y3017149D01*
X2617726Y3011815D01*
X2579626Y3011815D01*
D10*
X1562100Y5944615D02*
G01*
X1562100Y5835650D01*
X1562100Y5944615D02*
G01*
X1608836Y5944615D01*
X1624329Y5939536D01*
X1629663Y5934202D01*
X1634744Y5923787D01*
X1634744Y5913373D01*
X1629663Y5902960D01*
X1624329Y5897879D01*
X1608836Y5892800D01*
X1562100Y5892800D01*
X1598421Y5892800D02*
G01*
X1634744Y5835650D01*
X1669034Y5923787D02*
G01*
X1679447Y5929121D01*
X1695195Y5944615D01*
X1695195Y5835650D01*
X9550405Y4217418D02*
G01*
X9550405Y4139440D01*
X9555485Y4123946D01*
X9565899Y4113532D01*
X9581647Y4108452D01*
X9592061Y4108452D01*
X9607555Y4113532D01*
X9617969Y4123946D01*
X9623049Y4139440D01*
X9623049Y4217418D01*
X9657339Y4196590D02*
G01*
X9667753Y4201924D01*
X9683501Y4217418D01*
X9683501Y4108452D01*
D12*
X6565900Y1231900D02*
G01*
X6756400Y1231900D01*
X6756400Y1485900D01*
X4216400Y1485900D01*
X4216400Y1231900D01*
D13*
X4216400Y1231900D02*
G01*
X6565900Y1231900D01*
D12*
X4432300Y4051300D02*
G01*
X4241800Y4051300D01*
X4241800Y3797300D01*
X6781800Y3797300D01*
X6781800Y4051300D01*
D13*
X6781800Y4051300D02*
G01*
X4432300Y4051300D01*
D12*
X736600Y165100D02*
G01*
X736600Y419100D01*
X988060Y419100D01*
X988060Y-342900D01*
X736600Y-342900D01*
X736600Y165100D01*
X838200Y4991100D02*
G01*
X1089660Y4991100D01*
X1089660Y4483100D01*
X838200Y4483100D01*
X838200Y4991100D01*
X1092200Y5549900D02*
G01*
X840739Y5549900D01*
X840739Y6057900D01*
X1092200Y6057900D01*
X1092200Y5549900D01*
X11633200Y546100D02*
G01*
X11887200Y546100D01*
X11887200Y-469900D01*
X11633200Y-469900D01*
X11633200Y-279400D01*
D13*
X11633200Y546100D02*
G01*
X11633200Y-279400D01*
D12*
X11633200Y5651500D02*
G01*
X11887200Y5651500D01*
X11887200Y4635500D01*
X11633200Y4635500D01*
X11633200Y4826000D01*
D13*
X11633200Y5651500D02*
G01*
X11633200Y4826000D01*
D12*
X1752600Y4330700D02*
G01*
X1498600Y4330700D01*
X1498600Y5346700D01*
X1752600Y5346700D01*
X1752600Y5156200D01*
D13*
X1752600Y4330700D02*
G01*
X1752600Y5156200D01*
D14*
X2922247Y1110881D02*
G01*
X3722603Y1110881D01*
X1522196Y1310779D02*
G01*
X2922247Y1310779D01*
X2922247Y1110978D02*
G01*
X2922247Y1310881D01*
X1522242Y1110881D02*
G01*
X1522242Y1310779D01*
X1968248Y3365639D02*
G01*
X1968248Y4000639D01*
X2222248Y4010924D02*
G01*
X2222248Y3365639D01*
X2476248Y3365639D02*
G01*
X2476248Y4000639D01*
X2747238Y3365639D02*
G01*
X2747238Y4011053D01*
X1697258Y3360938D02*
G01*
X2532631Y3360813D01*
X2747238Y3360938D01*
X1697258Y4010924D02*
G01*
X1697258Y3365639D01*
X722602Y4010901D02*
G01*
X3422241Y4010901D01*
X1022248Y1110881D02*
G01*
X1522242Y1110881D01*
X3722603Y3710932D02*
G01*
X3722603Y1110927D01*
X722602Y4010901D02*
G01*
X722602Y1410929D01*
D10*
X1604721Y5661639D02*
G01*
X1700608Y5661639D01*
X1700608Y5793760D01*
X1604721Y5793760D01*
X1519478Y5661639D02*
G01*
X1423591Y5661639D01*
X1423591Y5793760D01*
X1519478Y5793760D01*
D14*
X11780596Y3079699D02*
G01*
X11780596Y2279700D01*
X12290595Y2279700D01*
X11780596Y3079699D02*
G01*
X12290595Y3079699D01*
X9627900Y1834514D02*
G01*
X9627900Y3524851D01*
X7470604Y1834514D02*
G01*
X9627900Y1834514D01*
X7470604Y3524851D02*
G01*
X9626300Y3524851D01*
X6850608Y3526698D02*
G01*
X6850608Y1832701D01*
X7470604Y3526698D02*
G01*
X6850608Y3526698D01*
X7470604Y1832701D02*
G01*
X6850611Y1832701D01*
X7470604Y1282702D02*
G01*
X7470604Y4076697D01*
X12290595Y4076697D02*
G01*
X7470604Y4076697D01*
X12290595Y1282702D02*
G01*
X7470604Y1282702D01*
X12290595Y4076697D02*
G01*
X12290595Y1282702D01*
G75*
G01*
X3422399Y4011054D02*
G02*
X3722370Y3710823I-28J-300000D01*
G75*
G01*
X1022353Y1110882D02*
G02*
X722373Y1410851I20J299999D01*
M02*
